<?xml version="1.0" encoding="utf-8"?>
<!-- Generator: Adobe Illustrator 15.0.0, SVG Export Plug-In . SVG Version: 6.00 Build 0)  -->
<!DOCTYPE svg PUBLIC "-//W3C//DTD SVG 1.1//EN" "http://www.w3.org/Graphics/SVG/1.1/DTD/svg11.dtd">
<svg version="1.1" xmlns="http://www.w3.org/2000/svg" xmlns:xlink="http://www.w3.org/1999/xlink" x="0px" y="0px"
	 width="440.003px" height="100px" viewBox="0 0 440.003 100" enable-background="new 0 0 440.003 100" xml:space="preserve">
<g id="BROWN">

		<image display="none" overflow="visible" opacity="0.71" width="139" height="102" xlink:href="AF3589BB.png"  transform="matrix(0.2862 0 0 0.2862 -485.6001 -1049.1475)">
	</image>

		<image display="none" overflow="visible" opacity="0.71" width="185" height="160" xlink:href="AF3589B9.png"  transform="matrix(0.2862 0 0 0.2862 -485.6118 -1006.1768)">
	</image>

		<image display="none" overflow="visible" opacity="0.71" width="160" height="310" xlink:href="AF3589BF.png"  transform="matrix(0.2862 0 0 0.2862 -531.7603 -1049.127)">
	</image>

		<image display="none" overflow="visible" opacity="0.71" width="146" height="307" xlink:href="AF3589B8.png"  transform="matrix(0.2862 0 0 0.2862 -500.5396 -1048.7549)">
	</image>
	<path fill="#3F2714" d="M174.377,47.823c0,6.217-2.85,11.484-7.857,15.197c-5.095,3.713-11.571,4.059-17.702,4.231h-15.975V3.354
		h12.003c5.785,0,11.225-0.259,16.579,2.418c5.267,2.677,9.066,8.376,9.066,14.334c0,5.095-2.417,10.017-7.081,12.262
		C170.491,34.612,174.377,40.57,174.377,47.823z M158.575,21.055c0-2.59-1.641-4.662-3.972-5.612
		c-2.246-1.036-5.268-0.604-7.771-0.604h-2.159v13.125h2.245c2.504,0,5.785,0.086,8.03-0.95S158.575,23.473,158.575,21.055z
		 M162.461,47.306c0-3.109-1.469-5.009-4.231-6.563c-2.677-1.381-5.526-1.295-8.376-1.295h-5.181v16.32h4.922
		c3.454,0,6.649-0.173,9.757-2.245C161.511,52.055,162.461,49.982,162.461,47.306z"/>
	<path fill="#3F2714" d="M226.255,67.252h-14.679l-16.58-24.437h-0.172v24.437h-11.83V3.354h18.479
		c6.045,0.086,11.744,0.432,16.579,4.49c4.663,3.799,7.513,9.757,7.513,15.716c0,4.749-2.159,10.534-5.354,13.988
		c-3.109,3.367-6.994,5.181-11.312,6.131L226.255,67.252z M213.648,24.25c0-2.85-1.209-5.613-3.455-7.254
		c-2.763-2.072-5.525-2.158-8.807-2.158h-6.562v18.997h6.476c3.108,0,7.081-0.432,9.412-2.677
		C212.611,29.345,213.648,26.927,213.648,24.25z"/>
	<path fill="#3F2714" d="M297.755,35.648c0,18.479-15.111,33.158-33.331,33.158c-18.133,0-33.244-14.68-33.244-33.158
		c0-18.652,14.852-33.504,33.244-33.504C282.902,2.145,297.755,16.996,297.755,35.648z M285.925,35.389
		c0-12.089-9.498-21.76-21.501-21.76c-11.916,0-21.414,9.671-21.414,21.76c0,11.83,9.757,21.933,21.414,21.933
		C276.167,57.321,285.925,47.219,285.925,35.389z"/>
	<path fill="#3F2714" d="M375.109,3.354l-18.564,63.898h-9.412l-10.448-42.225l-10.621,42.225h-9.412L298.086,3.354h12.089
		l11.139,44.729l10.794-44.643l8.895-0.086l10.793,44.729l11.484-44.643L375.109,3.354z"/>
	<path fill="#3F2714" d="M436.24,67.252h-13.125L396.26,20.71v46.542h-11.829V3.354h13.298l26.682,46.715V3.354h11.83V67.252z"/>
	<g>
		<g>
			<path fill="#E05626" d="M80.094,29.586l13.879-13.882C85.248,7.59,74.032,3.141,62.215,3.141c-2.197,0-4.424,0.166-6.638,0.474
				C66.5,9.093,75.238,18.309,80.094,29.586z"/>
		</g>
		<g>
			<path fill="#E05626" d="M84.256,51.724C83.627,71.312,72.109,88.18,55.564,96.478c2.124,0.29,4.271,0.443,6.449,0.443
				c3.222,0,6.359-0.32,9.598-0.984c0.675-0.139,1.339-0.295,1.998-0.462l0.539-0.143c0.537-0.145,1.08-0.296,1.612-0.458
				l0.772-0.25c0.447-0.149,0.904-0.295,1.357-0.456c0.269-0.098,0.545-0.207,0.906-0.348c0.406-0.155,0.794-0.304,1.17-0.454
				c0.363-0.153,0.712-0.312,1.07-0.467l0.995-0.454c0.393-0.182,0.791-0.381,1.292-0.641c0.299-0.15,0.496-0.249,0.695-0.355
				c0.468-0.248,0.936-0.513,1.406-0.783l0.557-0.32c0.547-0.325,1.107-0.676,1.663-1.042l0.216-0.14
				c2.598-1.715,5.064-3.734,7.303-5.976c8.454-8.448,13.291-19.572,13.725-31.465H84.256z"/>
		</g>
		<g>
			<path fill="#3F2714" d="M34.15,47.682l-3.992-2.013l3.792-2.373c6.427-4.017,10.265-10.901,10.265-18.417
				c0-11.718-9.18-21.236-20.9-21.679l-1.123-0.04L3.383,3.163v93.752l19.947-0.038c14.123-0.45,25.179-11.859,25.179-25.972
				C48.509,61.048,43.002,52.145,34.15,47.682z"/>
		</g>
		<g>
			<path fill="#016938" d="M79.262,50.041c0-23.713-17.695-43.369-40.578-46.462c6.438,4.881,10.565,12.59,10.565,21.3
				c0,7.917-3.444,15.267-9.39,20.319c8.53,5.741,13.685,15.272,13.685,25.707c0,10.491-5.135,19.697-13.063,25.306
				C62.485,92.363,79.262,73.13,79.262,50.041z"/>
		</g>
	</g>
</g>
<g id="Dev_Group">
	<g>
		<path fill="#3F2714" d="M146.75,88.267c0,2.42-1.104,5.006-2.984,6.604c-2.115,1.786-4.584,1.998-7.238,1.998h-3.714V79.478h3.643
			c2.585,0.023,5.241,0.281,7.31,2.021C145.669,83.097,146.75,85.799,146.75,88.267z M143.53,88.267c0-1.81-0.822-3.596-2.327-4.629
			c-1.457-0.987-3.243-1.033-4.935-1.033h-0.234v11.091l0.398,0.048c1.81,0.211,3.479-0.071,4.982-1.176
			C142.754,91.533,143.53,89.959,143.53,88.267z"/>
		<path fill="#3F2714" d="M161.071,96.868h-9.329V79.478h9.329v3.127h-6.11v4.018h5.852v3.125h-5.852v3.996h6.11V96.868z"/>
		<path fill="#3F2714" d="M182.77,79.478l-6.744,17.391h-2.656l-6.744-17.391h3.383l4.677,13.23l4.701-13.23H182.77z"/>
		<path fill="#3F2714" d="M197.896,96.868h-9.331V79.478h9.331v3.127h-6.111v4.018h5.852v3.125h-5.852v3.996h6.111V96.868z"/>
		<path fill="#3F2714" d="M213.777,96.868h-8.531V79.478h3.22v14.266h5.312V96.868z"/>
		<path fill="#3F2714" d="M235.102,88.267c0,5.029-4.112,9.024-9.072,9.024c-4.935,0-9.047-3.995-9.047-9.024
			c0-5.075,4.042-9.118,9.047-9.118C231.059,79.148,235.102,83.191,235.102,88.267z M231.882,88.196c0-3.29-2.585-5.922-5.853-5.922
			c-3.242,0-5.828,2.632-5.828,5.922c0,3.22,2.656,5.969,5.828,5.969C229.226,94.165,231.882,91.416,231.882,88.196z"/>
		<path fill="#3F2714" d="M252.161,84.766c0,1.739-0.704,3.384-2.091,4.465c-1.434,1.15-3.455,1.058-5.171,1.058h-0.635v6.58h-3.219
			V79.478h4.089c1.669,0,3.244-0.07,4.701,0.916C251.292,81.357,252.161,83.025,252.161,84.766z M248.918,84.812
			c0-1.058-0.705-1.81-1.668-2.068c-0.705-0.188-1.692-0.14-2.396-0.14h-0.589v4.559h0.589c0.799,0,1.716,0.046,2.49-0.189
			C248.284,86.669,248.918,85.846,248.918,84.812z"/>
		<path fill="#3F2714" d="M276.572,96.868h-3.221V83.825l-4.488,13.043h-2.749l-4.489-13.043v13.043h-3.22V79.478h4.396
			l4.652,13.302l4.747-13.302h4.372V96.868z"/>
		<path fill="#3F2714" d="M292.773,96.868h-9.33V79.478h9.33v3.127h-6.109v4.018h5.852v3.125h-5.852v3.996h6.109V96.868z"/>
		<path fill="#3F2714" d="M313.97,96.868h-3.573l-7.309-12.667v12.667h-3.22V79.478h3.619l7.262,12.714V79.478h3.221V96.868z"/>
		<path fill="#3F2714" d="M329.421,82.604h-3.244v14.264h-3.22V82.604h-3.195v-3.127h9.659V82.604z"/>
		<path fill="#3F2714" d="M361.986,88.385c0,5.076-4.277,8.906-9.26,8.906c-5.005,0-9.282-3.901-9.282-9.001
			c0-5.147,4.254-9.142,9.236-9.142c3.548,0,7.121,2.092,8.436,5.429h-3.854c-1.033-1.435-2.843-2.303-4.581-2.303
			c-1.48,0-2.915,0.54-4.019,1.503c-1.199,1.058-1.999,2.798-1.999,4.396c0,1.457,0.658,3.009,1.67,4.043
			c1.175,1.245,2.819,1.949,4.488,1.949c2.067,0,4.159-1.269,5.099-3.125h-7.284v-3.032h11.351V88.385z"/>
		<path fill="#3F2714" d="M379.287,96.868h-3.994l-4.513-6.65h-0.047v6.65h-3.22V79.478h5.029c1.646,0.023,3.196,0.118,4.513,1.222
			c1.269,1.035,2.045,2.655,2.045,4.277c0,1.293-0.589,2.867-1.458,3.807c-0.847,0.918-1.903,1.411-3.078,1.67L379.287,96.868z
			 M375.856,85.164c0-0.774-0.329-1.526-0.939-1.973c-0.753-0.564-1.505-0.587-2.397-0.587h-1.786v5.169h1.763
			c0.847,0,1.927-0.118,2.562-0.729C375.574,86.551,375.856,85.895,375.856,85.164z"/>
		<path fill="#3F2714" d="M401.47,88.267c0,5.029-4.113,9.024-9.073,9.024c-4.934,0-9.047-3.995-9.047-9.024
			c0-5.075,4.042-9.118,9.047-9.118C397.427,79.148,401.47,83.191,401.47,88.267z M398.249,88.196c0-3.29-2.585-5.922-5.853-5.922
			c-3.241,0-5.827,2.632-5.827,5.922c0,3.22,2.655,5.969,5.827,5.969C395.594,94.165,398.249,91.416,398.249,88.196z"/>
		<path fill="#3F2714" d="M418.554,90.335c0,1.715-0.141,3.337-1.269,4.7c-1.151,1.34-2.866,2.256-4.63,2.256
			c-1.646,0-3.36-0.894-4.441-2.115c-1.27-1.433-1.41-3.032-1.41-4.841V79.478h3.22v10.857c0,0.799-0.047,1.621,0.329,2.351
			c0.471,0.893,1.292,1.479,2.303,1.479c0.846,0,1.715-0.47,2.186-1.222c0.494-0.8,0.47-1.692,0.47-2.608V79.478h3.243V90.335z"/>
		<path fill="#3F2714" d="M436.254,84.766c0,1.739-0.704,3.384-2.092,4.465c-1.433,1.15-3.454,1.058-5.17,1.058h-0.635v6.58h-3.219
			V79.478h4.089c1.668,0,3.243-0.07,4.7,0.916C435.384,81.357,436.254,83.025,436.254,84.766z M433.01,84.812
			c0-1.058-0.704-1.81-1.668-2.068c-0.704-0.188-1.691-0.14-2.396-0.14h-0.588v4.559h0.588c0.799,0,1.717,0.046,2.49-0.189
			C432.376,86.669,433.01,85.846,433.01,84.812z"/>
	</g>
</g>
<g id="guide">
	<g>
		<g>
			<g>
			</g>
			<g>
			</g>
			<g>
			</g>
			<g>
			</g>
		</g>
		<g>
			<g>
				<g>
				</g>
			</g>
			<g>
				<g>
				</g>
			</g>
		</g>
	</g>
	<g>
		<g>
			<g>
			</g>
			<g>
			</g>
			<g>
			</g>
			<g>
			</g>
		</g>
		<g>
			<g>
				<g>
				</g>
			</g>
			<g>
				<g>
				</g>
			</g>
		</g>
	</g>
</g>
</svg>
